<svg xmlns="http://www.w3.org/2000/svg" viewBox="0 0 240 96" role="img" aria-labelledby="title desc">
  <title id="title">Revvam moving car</title>
  <desc id="desc">A stylized red Revvam sports car with spinning wheels.</desc>
  <defs>
    <linearGradient id="body" x1="0" y1="0" x2="1" y2="1">
      <stop offset="0" stop-color="#ff4d5a"/>
      <stop offset=".55" stop-color="#e11d2e"/>
      <stop offset="1" stop-color="#9f0712"/>
    </linearGradient>
    <linearGradient id="glass" x1="0" y1="0" x2="1" y2="1">
      <stop offset="0" stop-color="#dff8ff" stop-opacity=".7"/>
      <stop offset="1" stop-color="#111827" stop-opacity=".9"/>
    </linearGradient>
    <filter id="glow"><feGaussianBlur stdDeviation="2.5" result="b"/><feMerge><feMergeNode in="b"/><feMergeNode in="SourceGraphic"/></feMerge></filter>
  </defs>
  <g filter="url(#glow)">
    <path d="M25 61c7-5 14-13 21-25 3-5 8-8 14-9l56-6c8-1 15 2 21 8l19 20 35 5c8 1 14 6 17 14l2 7H20l1-7c1-3 2-5 4-7Z" fill="url(#body)" stroke="#ff6570" stroke-width="2"/>
    <path d="M67 28 117 22c7-1 13 1 18 7l14 16H54l13-17Z" fill="url(#glass)" stroke="#ff8c94" stroke-opacity=".5"/>
    <path d="M116 23v22M151 45H54" stroke="#ffb3b8" stroke-opacity=".35" stroke-width="2"/>
    <path d="M20 68h190" stroke="#ff6570" stroke-width="2" stroke-linecap="round"/>
    <path d="M29 54h18M194 57h12" stroke="#fff" stroke-opacity=".35" stroke-width="2" stroke-linecap="round"/>
    <circle cx="67" cy="72" r="16" fill="#050505" stroke="#ef4444" stroke-width="3"/>
    <circle cx="67" cy="72" r="8" fill="#111" stroke="#f87171" stroke-width="2"/>
    <circle cx="173" cy="72" r="16" fill="#050505" stroke="#ef4444" stroke-width="3"/>
    <circle cx="173" cy="72" r="8" fill="#111" stroke="#f87171" stroke-width="2"/>
    <path d="M67 64v16M59 72h16M173 64v16M165 72h16" stroke="#f87171" stroke-width="2" stroke-linecap="round">
      <animateTransform attributeName="transform" attributeType="XML" type="rotate" from="0 67 72" to="360 67 72" dur=".55s" repeatCount="indefinite"/>
    </path>
    <path d="M173 64v16M165 72h16" stroke="#f87171" stroke-width="2" stroke-linecap="round">
      <animateTransform attributeName="transform" attributeType="XML" type="rotate" from="0 173 72" to="360 173 72" dur=".55s" repeatCount="indefinite"/>
    </path>
  </g>
</svg>